<mxfile host="65bd71144e">
    <diagram id="bRaPEsUtMwQ9owTa6pMk" name="Page-1">
        <mxGraphModel dx="685" dy="556" grid="1" gridSize="10" guides="1" tooltips="1" connect="1" arrows="1" fold="1" page="1" pageScale="1" pageWidth="850" pageHeight="1100" math="0" shadow="0">
            <root>
                <mxCell id="0"/>
                <mxCell id="1" parent="0"/>
                <mxCell id="2" value="comment" style="ellipse;shape=cloud;whiteSpace=wrap;html=1;" parent="1" vertex="1">
                    <mxGeometry x="240" y="140" width="120" height="80" as="geometry"/>
                </mxCell>
                <mxCell id="3" value="user" style="ellipse;shape=cloud;whiteSpace=wrap;html=1;" parent="1" vertex="1">
                    <mxGeometry x="50" y="140" width="120" height="80" as="geometry"/>
                </mxCell>
                <mxCell id="4" value="photo" style="ellipse;shape=cloud;whiteSpace=wrap;html=1;" parent="1" vertex="1">
                    <mxGeometry x="400" y="140" width="120" height="80" as="geometry"/>
                </mxCell>
                <mxCell id="6" value="Actor" style="shape=umlActor;verticalLabelPosition=bottom;verticalAlign=top;html=1;outlineConnect=0;" parent="1" vertex="1">
                    <mxGeometry x="360" y="310" width="30" height="60" as="geometry"/>
                </mxCell>
                <mxCell id="rlnxYDWc12u0Mtqzyvvn-6" value="frame" style="ellipse;shape=cloud;whiteSpace=wrap;html=1;" vertex="1" parent="1">
                    <mxGeometry x="560" y="140" width="120" height="80" as="geometry"/>
                </mxCell>
                <mxCell id="rlnxYDWc12u0Mtqzyvvn-7" value="photo_tag" style="ellipse;shape=cloud;whiteSpace=wrap;html=1;" vertex="1" parent="1">
                    <mxGeometry x="710" y="140" width="120" height="80" as="geometry"/>
                </mxCell>
            </root>
        </mxGraphModel>
    </diagram>
    <diagram id="tnBeoDOKdZjEs4FvU7Mq" name="ERD_auction">
        <mxGraphModel dx="1706" dy="695" grid="1" gridSize="10" guides="1" tooltips="1" connect="1" arrows="1" fold="1" page="1" pageScale="1" pageWidth="850" pageHeight="1100" math="0" shadow="0">
            <root>
                <mxCell id="0"/>
                <mxCell id="1" parent="0"/>
                <mxCell id="7aqlcF1taa6f2n0w_Glu-1" value="&lt;span style=&quot;color: rgb(240, 240, 240); font-family: Helvetica; font-size: 12px; font-style: normal; font-variant-ligatures: normal; font-variant-caps: normal; font-weight: 400; letter-spacing: normal; orphans: 2; text-align: center; text-indent: 0px; text-transform: none; widows: 2; word-spacing: 0px; -webkit-text-stroke-width: 0px; background-color: rgb(42, 37, 47); text-decoration-thickness: initial; text-decoration-style: initial; text-decoration-color: initial; float: none; display: inline !important;&quot;&gt;user&lt;/span&gt;" style="rounded=1;whiteSpace=wrap;html=1;fillColor=#647687;fontColor=#ffffff;strokeColor=#314354;" parent="1" vertex="1">
                    <mxGeometry x="160" y="270" width="120" height="60" as="geometry"/>
                </mxCell>
                <mxCell id="7aqlcF1taa6f2n0w_Glu-2" value="&lt;span style=&quot;color: rgb(240, 240, 240); font-family: Helvetica; font-size: 12px; font-style: normal; font-variant-ligatures: normal; font-variant-caps: normal; font-weight: 400; letter-spacing: normal; orphans: 2; text-align: center; text-indent: 0px; text-transform: none; widows: 2; word-spacing: 0px; -webkit-text-stroke-width: 0px; background-color: rgb(42, 37, 47); text-decoration-thickness: initial; text-decoration-style: initial; text-decoration-color: initial; float: none; display: inline !important;&quot;&gt;comment&lt;/span&gt;" style="rounded=1;whiteSpace=wrap;html=1;fillColor=#647687;fontColor=#ffffff;strokeColor=#314354;" parent="1" vertex="1">
                    <mxGeometry x="600" y="220" width="120" height="60" as="geometry"/>
                </mxCell>
                <mxCell id="7aqlcF1taa6f2n0w_Glu-3" value="nick" style="ellipse;whiteSpace=wrap;html=1;" parent="1" vertex="1">
                    <mxGeometry x="100" y="60" width="90" height="50" as="geometry"/>
                </mxCell>
                <mxCell id="7aqlcF1taa6f2n0w_Glu-4" value="&lt;u&gt;user_id&lt;/u&gt;" style="ellipse;whiteSpace=wrap;html=1;" parent="1" vertex="1">
                    <mxGeometry x="20" y="200" width="90" height="50" as="geometry"/>
                </mxCell>
                <mxCell id="7aqlcF1taa6f2n0w_Glu-5" value="&lt;u&gt;comment_id&lt;/u&gt;" style="ellipse;whiteSpace=wrap;html=1;" parent="1" vertex="1">
                    <mxGeometry x="420" y="160" width="90" height="50" as="geometry"/>
                </mxCell>
                <mxCell id="7aqlcF1taa6f2n0w_Glu-6" value="email" style="ellipse;whiteSpace=wrap;html=1;" parent="1" vertex="1">
                    <mxGeometry x="540" y="60" width="90" height="50" as="geometry"/>
                </mxCell>
                <mxCell id="7aqlcF1taa6f2n0w_Glu-7" value="&lt;span style=&quot;font-family: monospace; font-size: 14px; text-align: left; background-color: rgba(0, 0, 0, 0.03);&quot;&gt;&lt;font color=&quot;#ffffff&quot;&gt;date&lt;/font&gt;&lt;/span&gt;" style="ellipse;whiteSpace=wrap;html=1;" parent="1" vertex="1">
                    <mxGeometry x="750" y="90" width="90" height="50" as="geometry"/>
                </mxCell>
                <mxCell id="7aqlcF1taa6f2n0w_Glu-8" value="text" style="ellipse;whiteSpace=wrap;html=1;" parent="1" vertex="1">
                    <mxGeometry x="650" y="50" width="90" height="50" as="geometry"/>
                </mxCell>
                <mxCell id="7aqlcF1taa6f2n0w_Glu-9" value="" style="endArrow=none;html=1;entryX=0.5;entryY=0;entryDx=0;entryDy=0;exitX=0.5;exitY=1;exitDx=0;exitDy=0;" parent="1" source="7aqlcF1taa6f2n0w_Glu-3" target="7aqlcF1taa6f2n0w_Glu-1" edge="1">
                    <mxGeometry width="50" height="50" relative="1" as="geometry">
                        <mxPoint x="200" y="430" as="sourcePoint"/>
                        <mxPoint x="450" y="390" as="targetPoint"/>
                        <Array as="points"/>
                    </mxGeometry>
                </mxCell>
                <mxCell id="7aqlcF1taa6f2n0w_Glu-10" value="" style="endArrow=none;html=1;entryX=0.5;entryY=0;entryDx=0;entryDy=0;exitX=0.5;exitY=1;exitDx=0;exitDy=0;" parent="1" source="7aqlcF1taa6f2n0w_Glu-4" target="7aqlcF1taa6f2n0w_Glu-1" edge="1">
                    <mxGeometry width="50" height="50" relative="1" as="geometry">
                        <mxPoint x="400" y="440" as="sourcePoint"/>
                        <mxPoint x="450" y="390" as="targetPoint"/>
                    </mxGeometry>
                </mxCell>
                <mxCell id="7aqlcF1taa6f2n0w_Glu-11" value="" style="endArrow=none;html=1;exitX=0.5;exitY=1;exitDx=0;exitDy=0;entryX=0.5;entryY=0;entryDx=0;entryDy=0;" parent="1" source="7aqlcF1taa6f2n0w_Glu-6" target="7aqlcF1taa6f2n0w_Glu-2" edge="1">
                    <mxGeometry width="50" height="50" relative="1" as="geometry">
                        <mxPoint x="640" y="430" as="sourcePoint"/>
                        <mxPoint x="640" y="480" as="targetPoint"/>
                        <Array as="points"/>
                    </mxGeometry>
                </mxCell>
                <mxCell id="7aqlcF1taa6f2n0w_Glu-12" value="" style="endArrow=none;html=1;exitX=0.5;exitY=1;exitDx=0;exitDy=0;entryX=0.5;entryY=0;entryDx=0;entryDy=0;" parent="1" source="7aqlcF1taa6f2n0w_Glu-7" target="7aqlcF1taa6f2n0w_Glu-2" edge="1">
                    <mxGeometry width="50" height="50" relative="1" as="geometry">
                        <mxPoint x="740" y="380" as="sourcePoint"/>
                        <mxPoint x="625" y="250" as="targetPoint"/>
                    </mxGeometry>
                </mxCell>
                <mxCell id="7aqlcF1taa6f2n0w_Glu-13" value="" style="endArrow=none;html=1;exitX=0.5;exitY=1;exitDx=0;exitDy=0;entryX=0.5;entryY=0;entryDx=0;entryDy=0;" parent="1" source="7aqlcF1taa6f2n0w_Glu-5" target="7aqlcF1taa6f2n0w_Glu-2" edge="1">
                    <mxGeometry width="50" height="50" relative="1" as="geometry">
                        <mxPoint x="520" y="380" as="sourcePoint"/>
                        <mxPoint x="640" y="470" as="targetPoint"/>
                    </mxGeometry>
                </mxCell>
                <mxCell id="7aqlcF1taa6f2n0w_Glu-14" value="" style="endArrow=none;html=1;exitX=0.391;exitY=1.024;exitDx=0;exitDy=0;exitPerimeter=0;entryX=0.5;entryY=0;entryDx=0;entryDy=0;" parent="1" source="7aqlcF1taa6f2n0w_Glu-8" target="7aqlcF1taa6f2n0w_Glu-2" edge="1">
                    <mxGeometry width="50" height="50" relative="1" as="geometry">
                        <mxPoint x="520" y="300" as="sourcePoint"/>
                        <mxPoint x="640" y="470" as="targetPoint"/>
                    </mxGeometry>
                </mxCell>
                <mxCell id="7aqlcF1taa6f2n0w_Glu-15" value="password" style="ellipse;whiteSpace=wrap;html=1;" parent="1" vertex="1">
                    <mxGeometry x="235" y="90" width="90" height="50" as="geometry"/>
                </mxCell>
                <mxCell id="7aqlcF1taa6f2n0w_Glu-16" value="" style="endArrow=none;html=1;entryX=0.5;entryY=1;entryDx=0;entryDy=0;exitX=0.5;exitY=0;exitDx=0;exitDy=0;" parent="1" source="7aqlcF1taa6f2n0w_Glu-1" target="7aqlcF1taa6f2n0w_Glu-15" edge="1">
                    <mxGeometry width="50" height="50" relative="1" as="geometry">
                        <mxPoint x="280" y="440" as="sourcePoint"/>
                        <mxPoint x="330" y="390" as="targetPoint"/>
                    </mxGeometry>
                </mxCell>
                <mxCell id="7aqlcF1taa6f2n0w_Glu-17" value="&lt;span style=&quot;color: rgb(240, 240, 240); font-family: Helvetica; font-size: 12px; font-style: normal; font-variant-ligatures: normal; font-variant-caps: normal; font-weight: 400; letter-spacing: normal; orphans: 2; text-align: center; text-indent: 0px; text-transform: none; widows: 2; word-spacing: 0px; -webkit-text-stroke-width: 0px; background-color: rgb(42, 37, 47); text-decoration-thickness: initial; text-decoration-style: initial; text-decoration-color: initial; float: none; display: inline !important;&quot;&gt;photo&lt;/span&gt;" style="rounded=1;whiteSpace=wrap;html=1;fillColor=#647687;fontColor=#ffffff;strokeColor=#314354;" parent="1" vertex="1">
                    <mxGeometry x="170" y="540" width="120" height="60" as="geometry"/>
                </mxCell>
                <mxCell id="7aqlcF1taa6f2n0w_Glu-18" value="&lt;u&gt;filename&lt;/u&gt;" style="ellipse;whiteSpace=wrap;html=1;" parent="1" vertex="1">
                    <mxGeometry x="80" y="700" width="90" height="50" as="geometry"/>
                </mxCell>
                <mxCell id="7aqlcF1taa6f2n0w_Glu-19" value="&lt;span style=&quot;font-family: monospace; font-size: 14px; text-align: left; background-color: rgba(0, 0, 0, 0.03);&quot;&gt;description&lt;/span&gt;" style="ellipse;whiteSpace=wrap;html=1;fontColor=#FFFFFF;" parent="1" vertex="1">
                    <mxGeometry x="185" y="700" width="90" height="50" as="geometry"/>
                </mxCell>
                <mxCell id="7aqlcF1taa6f2n0w_Glu-20" value="" style="endArrow=none;html=1;exitX=0.5;exitY=0;exitDx=0;exitDy=0;entryX=0.5;entryY=1;entryDx=0;entryDy=0;" parent="1" source="7aqlcF1taa6f2n0w_Glu-18" target="7aqlcF1taa6f2n0w_Glu-17" edge="1">
                    <mxGeometry width="50" height="50" relative="1" as="geometry">
                        <mxPoint x="320" y="560" as="sourcePoint"/>
                        <mxPoint x="370" y="510" as="targetPoint"/>
                    </mxGeometry>
                </mxCell>
                <mxCell id="7aqlcF1taa6f2n0w_Glu-21" value="" style="endArrow=none;html=1;entryX=0.5;entryY=1;entryDx=0;entryDy=0;exitX=0.5;exitY=0;exitDx=0;exitDy=0;" parent="1" source="7aqlcF1taa6f2n0w_Glu-19" target="7aqlcF1taa6f2n0w_Glu-17" edge="1">
                    <mxGeometry width="50" height="50" relative="1" as="geometry">
                        <mxPoint x="295" y="680" as="sourcePoint"/>
                        <mxPoint x="410" y="650" as="targetPoint"/>
                    </mxGeometry>
                </mxCell>
                <mxCell id="7aqlcF1taa6f2n0w_Glu-23" value="" style="endArrow=ERmany;html=1;exitX=0.5;exitY=0;exitDx=0;exitDy=0;entryX=0.5;entryY=1;entryDx=0;entryDy=0;startArrow=none;startFill=0;endFill=0;" parent="1" source="5Z0mzO-sbIWIZlkp7jNh-19" target="7aqlcF1taa6f2n0w_Glu-1" edge="1">
                    <mxGeometry width="50" height="50" relative="1" as="geometry">
                        <mxPoint x="220" y="410" as="sourcePoint"/>
                        <mxPoint x="215" y="540" as="targetPoint"/>
                    </mxGeometry>
                </mxCell>
                <mxCell id="7aqlcF1taa6f2n0w_Glu-24" value="" style="endArrow=none;html=1;exitX=0.5;exitY=0;exitDx=0;exitDy=0;endFill=0;entryX=0.5;entryY=1;entryDx=0;entryDy=0;startArrow=ERmany;startFill=0;" parent="1" source="7aqlcF1taa6f2n0w_Glu-17" target="5Z0mzO-sbIWIZlkp7jNh-19" edge="1">
                    <mxGeometry width="50" height="50" relative="1" as="geometry">
                        <mxPoint x="320" y="470" as="sourcePoint"/>
                        <mxPoint x="220" y="490" as="targetPoint"/>
                    </mxGeometry>
                </mxCell>
                <mxCell id="7aqlcF1taa6f2n0w_Glu-28" value="frame" style="rounded=1;whiteSpace=wrap;html=1;fillColor=#647687;fontColor=#ffffff;strokeColor=#314354;" parent="1" vertex="1">
                    <mxGeometry x="605" y="540" width="120" height="60" as="geometry"/>
                </mxCell>
                <mxCell id="7aqlcF1taa6f2n0w_Glu-29" value="&lt;u&gt;frame_id&lt;/u&gt;" style="ellipse;whiteSpace=wrap;html=1;" parent="1" vertex="1">
                    <mxGeometry x="580" y="780" width="90" height="50" as="geometry"/>
                </mxCell>
                <mxCell id="7aqlcF1taa6f2n0w_Glu-32" value="&lt;u&gt;fk_user_id&lt;/u&gt;" style="ellipse;whiteSpace=wrap;html=1;" parent="1" vertex="1">
                    <mxGeometry x="430" y="100" width="90" height="50" as="geometry"/>
                </mxCell>
                <mxCell id="7aqlcF1taa6f2n0w_Glu-33" value="" style="endArrow=none;html=1;entryX=1;entryY=0.5;entryDx=0;entryDy=0;exitX=0.5;exitY=0;exitDx=0;exitDy=0;" parent="1" source="7aqlcF1taa6f2n0w_Glu-2" target="7aqlcF1taa6f2n0w_Glu-32" edge="1">
                    <mxGeometry width="50" height="50" relative="1" as="geometry">
                        <mxPoint x="530" y="200" as="sourcePoint"/>
                        <mxPoint x="580" y="150" as="targetPoint"/>
                    </mxGeometry>
                </mxCell>
                <mxCell id="7aqlcF1taa6f2n0w_Glu-34" value="&lt;u&gt;photo_id&lt;/u&gt;" style="ellipse;whiteSpace=wrap;html=1;" parent="1" vertex="1">
                    <mxGeometry x="-20" y="700" width="90" height="50" as="geometry"/>
                </mxCell>
                <mxCell id="7aqlcF1taa6f2n0w_Glu-35" value="" style="endArrow=none;html=1;exitX=0.5;exitY=0;exitDx=0;exitDy=0;entryX=0.5;entryY=1;entryDx=0;entryDy=0;" parent="1" source="7aqlcF1taa6f2n0w_Glu-34" target="7aqlcF1taa6f2n0w_Glu-17" edge="1">
                    <mxGeometry width="50" height="50" relative="1" as="geometry">
                        <mxPoint x="85" y="530" as="sourcePoint"/>
                        <mxPoint x="5" y="620" as="targetPoint"/>
                    </mxGeometry>
                </mxCell>
                <mxCell id="7aqlcF1taa6f2n0w_Glu-38" style="edgeStyle=none;html=1;fontColor=#FFFFFF;exitX=0.5;exitY=0;exitDx=0;exitDy=0;endArrow=none;endFill=0;entryX=0.5;entryY=1;entryDx=0;entryDy=0;" parent="1" source="7aqlcF1taa6f2n0w_Glu-39" target="7aqlcF1taa6f2n0w_Glu-28" edge="1">
                    <mxGeometry relative="1" as="geometry">
                        <mxPoint x="665" y="600" as="targetPoint"/>
                    </mxGeometry>
                </mxCell>
                <mxCell id="7aqlcF1taa6f2n0w_Glu-39" value="&lt;u&gt;fk_photo_id&lt;/u&gt;" style="ellipse;whiteSpace=wrap;html=1;" parent="1" vertex="1">
                    <mxGeometry x="685" y="770" width="90" height="50" as="geometry"/>
                </mxCell>
                <mxCell id="7aqlcF1taa6f2n0w_Glu-40" value="&lt;u&gt;x_coord&lt;/u&gt;" style="ellipse;whiteSpace=wrap;html=1;" parent="1" vertex="1">
                    <mxGeometry x="740" y="700" width="90" height="50" as="geometry"/>
                </mxCell>
                <mxCell id="7aqlcF1taa6f2n0w_Glu-41" value="&lt;u&gt;y_coord&lt;/u&gt;" style="ellipse;whiteSpace=wrap;html=1;" parent="1" vertex="1">
                    <mxGeometry x="760" y="630" width="90" height="50" as="geometry"/>
                </mxCell>
                <mxCell id="7aqlcF1taa6f2n0w_Glu-43" value="" style="endArrow=none;html=1;fontColor=#FFFFFF;entryX=0.5;entryY=1;entryDx=0;entryDy=0;exitX=0.5;exitY=0;exitDx=0;exitDy=0;" parent="1" source="7aqlcF1taa6f2n0w_Glu-29" target="7aqlcF1taa6f2n0w_Glu-28" edge="1">
                    <mxGeometry width="50" height="50" relative="1" as="geometry">
                        <mxPoint x="400" y="420" as="sourcePoint"/>
                        <mxPoint x="450" y="370" as="targetPoint"/>
                    </mxGeometry>
                </mxCell>
                <mxCell id="7aqlcF1taa6f2n0w_Glu-44" value="" style="endArrow=none;html=1;fontColor=#FFFFFF;exitX=0.5;exitY=0;exitDx=0;exitDy=0;entryX=0.5;entryY=1;entryDx=0;entryDy=0;" parent="1" source="7aqlcF1taa6f2n0w_Glu-40" target="7aqlcF1taa6f2n0w_Glu-28" edge="1">
                    <mxGeometry width="50" height="50" relative="1" as="geometry">
                        <mxPoint x="570" y="675" as="sourcePoint"/>
                        <mxPoint x="680" y="610" as="targetPoint"/>
                    </mxGeometry>
                </mxCell>
                <mxCell id="7aqlcF1taa6f2n0w_Glu-45" value="" style="endArrow=none;html=1;fontColor=#FFFFFF;exitX=0.5;exitY=1;exitDx=0;exitDy=0;entryX=0.5;entryY=0;entryDx=0;entryDy=0;" parent="1" source="7aqlcF1taa6f2n0w_Glu-28" target="7aqlcF1taa6f2n0w_Glu-41" edge="1">
                    <mxGeometry width="50" height="50" relative="1" as="geometry">
                        <mxPoint x="400" y="420" as="sourcePoint"/>
                        <mxPoint x="500" y="440" as="targetPoint"/>
                    </mxGeometry>
                </mxCell>
                <mxCell id="7aqlcF1taa6f2n0w_Glu-49" value="" style="endArrow=ERmany;html=1;fontColor=#FFFFFF;exitX=1;exitY=0.5;exitDx=0;exitDy=0;entryX=0;entryY=0.5;entryDx=0;entryDy=0;endFill=0;" parent="1" source="7aqlcF1taa6f2n0w_Glu-17" target="7aqlcF1taa6f2n0w_Glu-28" edge="1">
                    <mxGeometry width="50" height="50" relative="1" as="geometry">
                        <mxPoint x="470" y="570" as="sourcePoint"/>
                        <mxPoint x="450" y="370" as="targetPoint"/>
                    </mxGeometry>
                </mxCell>
                <mxCell id="7aqlcF1taa6f2n0w_Glu-50" value="" style="endArrow=none;html=1;fontColor=#FFFFFF;entryX=0.5;entryY=1;entryDx=0;entryDy=0;exitX=0.5;exitY=0;exitDx=0;exitDy=0;startArrow=none;endFill=0;" parent="1" source="7aqlcF1taa6f2n0w_Glu-52" target="7aqlcF1taa6f2n0w_Glu-2" edge="1">
                    <mxGeometry width="50" height="50" relative="1" as="geometry">
                        <mxPoint x="400" y="420" as="sourcePoint"/>
                        <mxPoint x="450" y="370" as="targetPoint"/>
                    </mxGeometry>
                </mxCell>
                <mxCell id="7aqlcF1taa6f2n0w_Glu-51" value="" style="endArrow=none;html=1;fontColor=#FFFFFF;entryX=0.5;entryY=1;entryDx=0;entryDy=0;exitX=0.5;exitY=0;exitDx=0;exitDy=0;startArrow=ERmany;startFill=0;" parent="1" source="7aqlcF1taa6f2n0w_Glu-28" target="7aqlcF1taa6f2n0w_Glu-52" edge="1">
                    <mxGeometry width="50" height="50" relative="1" as="geometry">
                        <mxPoint x="665" y="540" as="sourcePoint"/>
                        <mxPoint x="660" y="280" as="targetPoint"/>
                    </mxGeometry>
                </mxCell>
                <mxCell id="7aqlcF1taa6f2n0w_Glu-52" value="has" style="rhombus;whiteSpace=wrap;html=1;" parent="1" vertex="1">
                    <mxGeometry x="620" y="370" width="80" height="80" as="geometry"/>
                </mxCell>
                <mxCell id="DvpEEzrvTe-u_2cibs0W-5" value="real_name" style="ellipse;whiteSpace=wrap;html=1;" parent="1" vertex="1">
                    <mxGeometry x="290" y="150" width="90" height="50" as="geometry"/>
                </mxCell>
                <mxCell id="DvpEEzrvTe-u_2cibs0W-6" value="" style="endArrow=none;html=1;entryX=0.5;entryY=1;entryDx=0;entryDy=0;exitX=0.5;exitY=0;exitDx=0;exitDy=0;" parent="1" source="7aqlcF1taa6f2n0w_Glu-1" target="DvpEEzrvTe-u_2cibs0W-5" edge="1">
                    <mxGeometry width="50" height="50" relative="1" as="geometry">
                        <mxPoint x="230" y="280" as="sourcePoint"/>
                        <mxPoint x="290" y="150" as="targetPoint"/>
                    </mxGeometry>
                </mxCell>
                <mxCell id="5Z0mzO-sbIWIZlkp7jNh-6" value="&lt;span style=&quot;color: rgb(240, 240, 240); font-family: Helvetica; font-size: 12px; font-style: normal; font-variant-ligatures: normal; font-variant-caps: normal; font-weight: 400; letter-spacing: normal; orphans: 2; text-align: center; text-indent: 0px; text-transform: none; widows: 2; word-spacing: 0px; -webkit-text-stroke-width: 0px; background-color: rgb(42, 37, 47); text-decoration-thickness: initial; text-decoration-style: initial; text-decoration-color: initial; float: none; display: inline !important;&quot;&gt;photo_tag&lt;/span&gt;" style="rounded=1;whiteSpace=wrap;html=1;fillColor=#647687;fontColor=#ffffff;strokeColor=#314354;" vertex="1" parent="1">
                    <mxGeometry x="360" y="740" width="120" height="60" as="geometry"/>
                </mxCell>
                <mxCell id="5Z0mzO-sbIWIZlkp7jNh-7" value="&lt;u&gt;fk_frame_id&lt;/u&gt;" style="ellipse;whiteSpace=wrap;html=1;" vertex="1" parent="1">
                    <mxGeometry x="310" y="910" width="90" height="50" as="geometry"/>
                </mxCell>
                <mxCell id="5Z0mzO-sbIWIZlkp7jNh-8" value="fk_photo_id" style="ellipse;whiteSpace=wrap;html=1;" vertex="1" parent="1">
                    <mxGeometry x="440" y="910" width="90" height="50" as="geometry"/>
                </mxCell>
                <mxCell id="5Z0mzO-sbIWIZlkp7jNh-9" value="" style="endArrow=none;html=1;exitX=0.5;exitY=0;exitDx=0;exitDy=0;entryX=0.5;entryY=1;entryDx=0;entryDy=0;" edge="1" parent="1" source="5Z0mzO-sbIWIZlkp7jNh-7" target="5Z0mzO-sbIWIZlkp7jNh-6">
                    <mxGeometry width="50" height="50" relative="1" as="geometry">
                        <mxPoint x="510" y="760" as="sourcePoint"/>
                        <mxPoint x="560" y="710" as="targetPoint"/>
                    </mxGeometry>
                </mxCell>
                <mxCell id="5Z0mzO-sbIWIZlkp7jNh-10" value="" style="endArrow=none;html=1;entryX=0.5;entryY=1;entryDx=0;entryDy=0;exitX=0.5;exitY=0;exitDx=0;exitDy=0;" edge="1" parent="1" source="5Z0mzO-sbIWIZlkp7jNh-8" target="5Z0mzO-sbIWIZlkp7jNh-6">
                    <mxGeometry width="50" height="50" relative="1" as="geometry">
                        <mxPoint x="485" y="880" as="sourcePoint"/>
                        <mxPoint x="600" y="850" as="targetPoint"/>
                    </mxGeometry>
                </mxCell>
                <mxCell id="5Z0mzO-sbIWIZlkp7jNh-11" value="&lt;u&gt;photo_tag_id&lt;/u&gt;" style="ellipse;whiteSpace=wrap;html=1;" vertex="1" parent="1">
                    <mxGeometry x="190" y="890" width="90" height="50" as="geometry"/>
                </mxCell>
                <mxCell id="5Z0mzO-sbIWIZlkp7jNh-12" value="" style="endArrow=none;html=1;exitX=0.5;exitY=0;exitDx=0;exitDy=0;entryX=0.5;entryY=1;entryDx=0;entryDy=0;" edge="1" parent="1" source="5Z0mzO-sbIWIZlkp7jNh-11" target="5Z0mzO-sbIWIZlkp7jNh-6">
                    <mxGeometry width="50" height="50" relative="1" as="geometry">
                        <mxPoint x="275" y="730" as="sourcePoint"/>
                        <mxPoint x="195" y="820" as="targetPoint"/>
                    </mxGeometry>
                </mxCell>
                <mxCell id="5Z0mzO-sbIWIZlkp7jNh-15" value="email" style="ellipse;whiteSpace=wrap;html=1;" vertex="1" parent="1">
                    <mxGeometry x="325" y="200" width="90" height="50" as="geometry"/>
                </mxCell>
                <mxCell id="5Z0mzO-sbIWIZlkp7jNh-16" value="" style="endArrow=none;html=1;entryX=0.5;entryY=1;entryDx=0;entryDy=0;exitX=0.5;exitY=0;exitDx=0;exitDy=0;" edge="1" parent="1" target="5Z0mzO-sbIWIZlkp7jNh-15" source="7aqlcF1taa6f2n0w_Glu-1">
                    <mxGeometry width="50" height="50" relative="1" as="geometry">
                        <mxPoint x="255" y="320" as="sourcePoint"/>
                        <mxPoint x="325" y="200" as="targetPoint"/>
                    </mxGeometry>
                </mxCell>
                <mxCell id="5Z0mzO-sbIWIZlkp7jNh-17" value="" style="endArrow=ERmany;html=1;fontColor=#FFFFFF;entryX=0.5;entryY=0;entryDx=0;entryDy=0;exitX=0.5;exitY=1;exitDx=0;exitDy=0;endFill=0;" edge="1" parent="1" source="7aqlcF1taa6f2n0w_Glu-17" target="5Z0mzO-sbIWIZlkp7jNh-6">
                    <mxGeometry width="50" height="50" relative="1" as="geometry">
                        <mxPoint x="450" y="600" as="sourcePoint"/>
                        <mxPoint x="400" y="650" as="targetPoint"/>
                    </mxGeometry>
                </mxCell>
                <mxCell id="5Z0mzO-sbIWIZlkp7jNh-18" value="" style="endArrow=none;html=1;fontColor=#FFFFFF;exitX=0.5;exitY=0;exitDx=0;exitDy=0;entryX=0;entryY=0.5;entryDx=0;entryDy=0;" edge="1" parent="1" source="5Z0mzO-sbIWIZlkp7jNh-6" target="7aqlcF1taa6f2n0w_Glu-28">
                    <mxGeometry width="50" height="50" relative="1" as="geometry">
                        <mxPoint x="400" y="650" as="sourcePoint"/>
                        <mxPoint x="450" y="600" as="targetPoint"/>
                    </mxGeometry>
                </mxCell>
                <mxCell id="5Z0mzO-sbIWIZlkp7jNh-19" value="user_id&lt;br&gt;photo_id" style="rounded=1;whiteSpace=wrap;html=1;" vertex="1" parent="1">
                    <mxGeometry x="115" y="410" width="120" height="60" as="geometry"/>
                </mxCell>
                <mxCell id="5Z0mzO-sbIWIZlkp7jNh-21" value="" style="endArrow=ERmany;html=1;fontColor=#FFFFFF;exitX=0.5;exitY=0;exitDx=0;exitDy=0;entryX=0;entryY=0.5;entryDx=0;entryDy=0;startArrow=none;startFill=0;endFill=0;" edge="1" parent="1" source="5Z0mzO-sbIWIZlkp7jNh-20" target="7aqlcF1taa6f2n0w_Glu-2">
                    <mxGeometry width="50" height="50" relative="1" as="geometry">
                        <mxPoint x="360" y="370" as="sourcePoint"/>
                        <mxPoint x="410" y="320" as="targetPoint"/>
                    </mxGeometry>
                </mxCell>
                <mxCell id="5Z0mzO-sbIWIZlkp7jNh-24" value="" style="endArrow=ERmany;html=1;fontColor=#FFFFFF;entryX=0;entryY=0.5;entryDx=0;entryDy=0;exitX=1;exitY=0.5;exitDx=0;exitDy=0;endFill=0;" edge="1" parent="1" source="7aqlcF1taa6f2n0w_Glu-1" target="7aqlcF1taa6f2n0w_Glu-2">
                    <mxGeometry width="50" height="50" relative="1" as="geometry">
                        <mxPoint x="360" y="370" as="sourcePoint"/>
                        <mxPoint x="410" y="320" as="targetPoint"/>
                    </mxGeometry>
                </mxCell>
                <mxCell id="5Z0mzO-sbIWIZlkp7jNh-25" value="" style="endArrow=none;html=1;fontColor=#FFFFFF;exitX=0.5;exitY=0;exitDx=0;exitDy=0;entryX=0.5;entryY=1;entryDx=0;entryDy=0;startArrow=ERmany;startFill=0;" edge="1" parent="1" source="5Z0mzO-sbIWIZlkp7jNh-6" target="5Z0mzO-sbIWIZlkp7jNh-20">
                    <mxGeometry width="50" height="50" relative="1" as="geometry">
                        <mxPoint x="420" y="740" as="sourcePoint"/>
                        <mxPoint x="600" y="250" as="targetPoint"/>
                    </mxGeometry>
                </mxCell>
                <mxCell id="5Z0mzO-sbIWIZlkp7jNh-20" value="comment_id&lt;br&gt;photo_tag_id" style="rounded=1;whiteSpace=wrap;html=1;" vertex="1" parent="1">
                    <mxGeometry x="470" y="410" width="120" height="60" as="geometry"/>
                </mxCell>
                <mxCell id="5Z0mzO-sbIWIZlkp7jNh-26" value="???user_id???&lt;br&gt;???photo_tag_id???" style="rounded=1;whiteSpace=wrap;html=1;" vertex="1" parent="1">
                    <mxGeometry x="290" y="370" width="120" height="60" as="geometry"/>
                </mxCell>
                <mxCell id="5Z0mzO-sbIWIZlkp7jNh-27" value="" style="endArrow=ERmany;html=1;fontColor=#FFFFFF;entryX=0.5;entryY=0;entryDx=0;entryDy=0;exitX=0.5;exitY=1;exitDx=0;exitDy=0;endFill=0;startArrow=none;startFill=0;" edge="1" parent="1" source="5Z0mzO-sbIWIZlkp7jNh-26" target="5Z0mzO-sbIWIZlkp7jNh-6">
                    <mxGeometry width="50" height="50" relative="1" as="geometry">
                        <mxPoint x="410" y="520" as="sourcePoint"/>
                        <mxPoint x="360" y="570" as="targetPoint"/>
                    </mxGeometry>
                </mxCell>
                <mxCell id="5Z0mzO-sbIWIZlkp7jNh-28" value="" style="endArrow=none;html=1;fontColor=#FFFFFF;entryX=0.5;entryY=0;entryDx=0;entryDy=0;exitX=0.5;exitY=1;exitDx=0;exitDy=0;startArrow=ERmany;startFill=0;" edge="1" parent="1" source="7aqlcF1taa6f2n0w_Glu-1" target="5Z0mzO-sbIWIZlkp7jNh-26">
                    <mxGeometry width="50" height="50" relative="1" as="geometry">
                        <mxPoint x="410" y="520" as="sourcePoint"/>
                        <mxPoint x="360" y="570" as="targetPoint"/>
                    </mxGeometry>
                </mxCell>
                <mxCell id="5Z0mzO-sbIWIZlkp7jNh-29" value="photo_tag" style="swimlane;fontStyle=0;childLayout=stackLayout;horizontal=1;startSize=26;fillColor=none;horizontalStack=0;resizeParent=1;resizeParentMax=0;resizeLast=0;collapsible=1;marginBottom=0;" vertex="1" parent="1">
                    <mxGeometry x="-105" y="810" width="205" height="104" as="geometry"/>
                </mxCell>
                <mxCell id="5Z0mzO-sbIWIZlkp7jNh-30" value="photo_tag_id : int" style="text;strokeColor=none;fillColor=none;align=left;verticalAlign=top;spacingLeft=4;spacingRight=4;overflow=hidden;rotatable=0;points=[[0,0.5],[1,0.5]];portConstraint=eastwest;fontStyle=4" vertex="1" parent="5Z0mzO-sbIWIZlkp7jNh-29">
                    <mxGeometry y="26" width="205" height="26" as="geometry"/>
                </mxCell>
                <mxCell id="5Z0mzO-sbIWIZlkp7jNh-31" value="fk_frame_id: int" style="text;strokeColor=none;fillColor=none;align=left;verticalAlign=top;spacingLeft=4;spacingRight=4;overflow=hidden;rotatable=0;points=[[0,0.5],[1,0.5]];portConstraint=eastwest;" vertex="1" parent="5Z0mzO-sbIWIZlkp7jNh-29">
                    <mxGeometry y="52" width="205" height="26" as="geometry"/>
                </mxCell>
                <mxCell id="5Z0mzO-sbIWIZlkp7jNh-32" value="fk_photo_id: int" style="text;strokeColor=none;fillColor=none;align=left;verticalAlign=top;spacingLeft=4;spacingRight=4;overflow=hidden;rotatable=0;points=[[0,0.5],[1,0.5]];portConstraint=eastwest;" vertex="1" parent="5Z0mzO-sbIWIZlkp7jNh-29">
                    <mxGeometry y="78" width="205" height="26" as="geometry"/>
                </mxCell>
                <mxCell id="5Z0mzO-sbIWIZlkp7jNh-33" value="photo" style="swimlane;fontStyle=0;childLayout=stackLayout;horizontal=1;startSize=26;fillColor=none;horizontalStack=0;resizeParent=1;resizeParentMax=0;resizeLast=0;collapsible=1;marginBottom=0;" vertex="1" parent="1">
                    <mxGeometry x="-135" y="490" width="205" height="104" as="geometry"/>
                </mxCell>
                <mxCell id="5Z0mzO-sbIWIZlkp7jNh-34" value="photo_id : int" style="text;strokeColor=none;fillColor=none;align=left;verticalAlign=top;spacingLeft=4;spacingRight=4;overflow=hidden;rotatable=0;points=[[0,0.5],[1,0.5]];portConstraint=eastwest;fontStyle=4" vertex="1" parent="5Z0mzO-sbIWIZlkp7jNh-33">
                    <mxGeometry y="26" width="205" height="26" as="geometry"/>
                </mxCell>
                <mxCell id="5Z0mzO-sbIWIZlkp7jNh-35" value="filename: vachar(250)" style="text;strokeColor=none;fillColor=none;align=left;verticalAlign=top;spacingLeft=4;spacingRight=4;overflow=hidden;rotatable=0;points=[[0,0.5],[1,0.5]];portConstraint=eastwest;" vertex="1" parent="5Z0mzO-sbIWIZlkp7jNh-33">
                    <mxGeometry y="52" width="205" height="26" as="geometry"/>
                </mxCell>
                <mxCell id="5Z0mzO-sbIWIZlkp7jNh-36" value="description: vachar(250)" style="text;strokeColor=none;fillColor=none;align=left;verticalAlign=top;spacingLeft=4;spacingRight=4;overflow=hidden;rotatable=0;points=[[0,0.5],[1,0.5]];portConstraint=eastwest;" vertex="1" parent="5Z0mzO-sbIWIZlkp7jNh-33">
                    <mxGeometry y="78" width="205" height="26" as="geometry"/>
                </mxCell>
                <mxCell id="5Z0mzO-sbIWIZlkp7jNh-37" value="user" style="swimlane;fontStyle=0;childLayout=stackLayout;horizontal=1;startSize=26;fillColor=none;horizontalStack=0;resizeParent=1;resizeParentMax=0;resizeLast=0;collapsible=1;marginBottom=0;" vertex="1" parent="1">
                    <mxGeometry x="-225" y="248" width="205" height="208" as="geometry"/>
                </mxCell>
                <mxCell id="5Z0mzO-sbIWIZlkp7jNh-38" value="user_id : int" style="text;strokeColor=none;fillColor=none;align=left;verticalAlign=top;spacingLeft=4;spacingRight=4;overflow=hidden;rotatable=0;points=[[0,0.5],[1,0.5]];portConstraint=eastwest;fontStyle=4" vertex="1" parent="5Z0mzO-sbIWIZlkp7jNh-37">
                    <mxGeometry y="26" width="205" height="26" as="geometry"/>
                </mxCell>
                <mxCell id="5Z0mzO-sbIWIZlkp7jNh-39" value="nick: vachar(250)" style="text;strokeColor=none;fillColor=none;align=left;verticalAlign=top;spacingLeft=4;spacingRight=4;overflow=hidden;rotatable=0;points=[[0,0.5],[1,0.5]];portConstraint=eastwest;" vertex="1" parent="5Z0mzO-sbIWIZlkp7jNh-37">
                    <mxGeometry y="52" width="205" height="26" as="geometry"/>
                </mxCell>
                <mxCell id="5Z0mzO-sbIWIZlkp7jNh-41" value="password: vachar(250)" style="text;strokeColor=none;fillColor=none;align=left;verticalAlign=top;spacingLeft=4;spacingRight=4;overflow=hidden;rotatable=0;points=[[0,0.5],[1,0.5]];portConstraint=eastwest;" vertex="1" parent="5Z0mzO-sbIWIZlkp7jNh-37">
                    <mxGeometry y="78" width="205" height="26" as="geometry"/>
                </mxCell>
                <mxCell id="5Z0mzO-sbIWIZlkp7jNh-42" value="real_name: vachar(250)" style="text;strokeColor=none;fillColor=none;align=left;verticalAlign=top;spacingLeft=4;spacingRight=4;overflow=hidden;rotatable=0;points=[[0,0.5],[1,0.5]];portConstraint=eastwest;" vertex="1" parent="5Z0mzO-sbIWIZlkp7jNh-37">
                    <mxGeometry y="104" width="205" height="26" as="geometry"/>
                </mxCell>
                <mxCell id="5Z0mzO-sbIWIZlkp7jNh-43" value="email: vachar(250)" style="text;strokeColor=none;fillColor=none;align=left;verticalAlign=top;spacingLeft=4;spacingRight=4;overflow=hidden;rotatable=0;points=[[0,0.5],[1,0.5]];portConstraint=eastwest;" vertex="1" parent="5Z0mzO-sbIWIZlkp7jNh-37">
                    <mxGeometry y="130" width="205" height="26" as="geometry"/>
                </mxCell>
                <mxCell id="5Z0mzO-sbIWIZlkp7jNh-40" value="fk_photo_id" style="text;strokeColor=none;fillColor=none;align=left;verticalAlign=top;spacingLeft=4;spacingRight=4;overflow=hidden;rotatable=0;points=[[0,0.5],[1,0.5]];portConstraint=eastwest;" vertex="1" parent="5Z0mzO-sbIWIZlkp7jNh-37">
                    <mxGeometry y="156" width="205" height="26" as="geometry"/>
                </mxCell>
                <mxCell id="5Z0mzO-sbIWIZlkp7jNh-44" value="fk_photo_tag_id" style="text;strokeColor=none;fillColor=none;align=left;verticalAlign=top;spacingLeft=4;spacingRight=4;overflow=hidden;rotatable=0;points=[[0,0.5],[1,0.5]];portConstraint=eastwest;" vertex="1" parent="5Z0mzO-sbIWIZlkp7jNh-37">
                    <mxGeometry y="182" width="205" height="26" as="geometry"/>
                </mxCell>
                <mxCell id="5Z0mzO-sbIWIZlkp7jNh-45" value="frame" style="swimlane;fontStyle=0;childLayout=stackLayout;horizontal=1;startSize=26;fillColor=none;horizontalStack=0;resizeParent=1;resizeParentMax=0;resizeLast=0;collapsible=1;marginBottom=0;" vertex="1" parent="1">
                    <mxGeometry x="790" y="477" width="205" height="130" as="geometry"/>
                </mxCell>
                <mxCell id="5Z0mzO-sbIWIZlkp7jNh-46" value="frame_id : int" style="text;strokeColor=none;fillColor=none;align=left;verticalAlign=top;spacingLeft=4;spacingRight=4;overflow=hidden;rotatable=0;points=[[0,0.5],[1,0.5]];portConstraint=eastwest;fontStyle=4" vertex="1" parent="5Z0mzO-sbIWIZlkp7jNh-45">
                    <mxGeometry y="26" width="205" height="26" as="geometry"/>
                </mxCell>
                <mxCell id="5Z0mzO-sbIWIZlkp7jNh-47" value="fk_photo_id: int" style="text;strokeColor=none;fillColor=none;align=left;verticalAlign=top;spacingLeft=4;spacingRight=4;overflow=hidden;rotatable=0;points=[[0,0.5],[1,0.5]];portConstraint=eastwest;" vertex="1" parent="5Z0mzO-sbIWIZlkp7jNh-45">
                    <mxGeometry y="52" width="205" height="26" as="geometry"/>
                </mxCell>
                <mxCell id="5Z0mzO-sbIWIZlkp7jNh-48" value="x_coord: decimal" style="text;strokeColor=none;fillColor=none;align=left;verticalAlign=top;spacingLeft=4;spacingRight=4;overflow=hidden;rotatable=0;points=[[0,0.5],[1,0.5]];portConstraint=eastwest;" vertex="1" parent="5Z0mzO-sbIWIZlkp7jNh-45">
                    <mxGeometry y="78" width="205" height="26" as="geometry"/>
                </mxCell>
                <mxCell id="5Z0mzO-sbIWIZlkp7jNh-49" value="y_coord: decimal" style="text;strokeColor=none;fillColor=none;align=left;verticalAlign=top;spacingLeft=4;spacingRight=4;overflow=hidden;rotatable=0;points=[[0,0.5],[1,0.5]];portConstraint=eastwest;" vertex="1" parent="5Z0mzO-sbIWIZlkp7jNh-45">
                    <mxGeometry y="104" width="205" height="26" as="geometry"/>
                </mxCell>
                <mxCell id="5Z0mzO-sbIWIZlkp7jNh-50" value="comment" style="swimlane;fontStyle=0;childLayout=stackLayout;horizontal=1;startSize=26;fillColor=none;horizontalStack=0;resizeParent=1;resizeParentMax=0;resizeLast=0;collapsible=1;marginBottom=0;" vertex="1" parent="1">
                    <mxGeometry x="820" y="200" width="205" height="182" as="geometry"/>
                </mxCell>
                <mxCell id="5Z0mzO-sbIWIZlkp7jNh-51" value="comment_id : int" style="text;strokeColor=none;fillColor=none;align=left;verticalAlign=top;spacingLeft=4;spacingRight=4;overflow=hidden;rotatable=0;points=[[0,0.5],[1,0.5]];portConstraint=eastwest;fontStyle=4" vertex="1" parent="5Z0mzO-sbIWIZlkp7jNh-50">
                    <mxGeometry y="26" width="205" height="26" as="geometry"/>
                </mxCell>
                <mxCell id="5Z0mzO-sbIWIZlkp7jNh-52" value="fk_user_id: int" style="text;strokeColor=none;fillColor=none;align=left;verticalAlign=top;spacingLeft=4;spacingRight=4;overflow=hidden;rotatable=0;points=[[0,0.5],[1,0.5]];portConstraint=eastwest;" vertex="1" parent="5Z0mzO-sbIWIZlkp7jNh-50">
                    <mxGeometry y="52" width="205" height="26" as="geometry"/>
                </mxCell>
                <mxCell id="5Z0mzO-sbIWIZlkp7jNh-53" value="email: vachaer(250)" style="text;strokeColor=none;fillColor=none;align=left;verticalAlign=top;spacingLeft=4;spacingRight=4;overflow=hidden;rotatable=0;points=[[0,0.5],[1,0.5]];portConstraint=eastwest;" vertex="1" parent="5Z0mzO-sbIWIZlkp7jNh-50">
                    <mxGeometry y="78" width="205" height="26" as="geometry"/>
                </mxCell>
                <mxCell id="5Z0mzO-sbIWIZlkp7jNh-54" value="text: vachar(250)" style="text;strokeColor=none;fillColor=none;align=left;verticalAlign=top;spacingLeft=4;spacingRight=4;overflow=hidden;rotatable=0;points=[[0,0.5],[1,0.5]];portConstraint=eastwest;" vertex="1" parent="5Z0mzO-sbIWIZlkp7jNh-50">
                    <mxGeometry y="104" width="205" height="26" as="geometry"/>
                </mxCell>
                <mxCell id="5Z0mzO-sbIWIZlkp7jNh-55" value="date: date" style="text;strokeColor=none;fillColor=none;align=left;verticalAlign=top;spacingLeft=4;spacingRight=4;overflow=hidden;rotatable=0;points=[[0,0.5],[1,0.5]];portConstraint=eastwest;" vertex="1" parent="5Z0mzO-sbIWIZlkp7jNh-50">
                    <mxGeometry y="130" width="205" height="26" as="geometry"/>
                </mxCell>
                <mxCell id="5Z0mzO-sbIWIZlkp7jNh-56" value="fk_photo_tag_id" style="text;strokeColor=none;fillColor=none;align=left;verticalAlign=top;spacingLeft=4;spacingRight=4;overflow=hidden;rotatable=0;points=[[0,0.5],[1,0.5]];portConstraint=eastwest;" vertex="1" parent="5Z0mzO-sbIWIZlkp7jNh-50">
                    <mxGeometry y="156" width="205" height="26" as="geometry"/>
                </mxCell>
            </root>
        </mxGraphModel>
    </diagram>
    <diagram id="FHEcnKZUY94CsRZemVNO" name="UML_Auction">
        <mxGraphModel dx="913" dy="741" grid="1" gridSize="10" guides="1" tooltips="1" connect="1" arrows="1" fold="1" page="1" pageScale="1" pageWidth="850" pageHeight="1100" math="0" shadow="0">
            <root>
                <mxCell id="0"/>
                <mxCell id="1" parent="0"/>
                <mxCell id="_T_32xjjqrooFcNaGYBu-1" value="product" style="swimlane;fontStyle=0;childLayout=stackLayout;horizontal=1;startSize=26;fillColor=none;horizontalStack=0;resizeParent=1;resizeParentMax=0;resizeLast=0;collapsible=1;marginBottom=0;" vertex="1" parent="1">
                    <mxGeometry x="120" y="114" width="160" height="156" as="geometry"/>
                </mxCell>
                <mxCell id="_T_32xjjqrooFcNaGYBu-2" value="product_id : int" style="text;strokeColor=none;fillColor=none;align=left;verticalAlign=top;spacingLeft=4;spacingRight=4;overflow=hidden;rotatable=0;points=[[0,0.5],[1,0.5]];portConstraint=eastwest;fontStyle=4" vertex="1" parent="_T_32xjjqrooFcNaGYBu-1">
                    <mxGeometry y="26" width="160" height="26" as="geometry"/>
                </mxCell>
                <mxCell id="_T_32xjjqrooFcNaGYBu-3" value="name: varchar(200)" style="text;strokeColor=none;fillColor=none;align=left;verticalAlign=top;spacingLeft=4;spacingRight=4;overflow=hidden;rotatable=0;points=[[0,0.5],[1,0.5]];portConstraint=eastwest;" vertex="1" parent="_T_32xjjqrooFcNaGYBu-1">
                    <mxGeometry y="52" width="160" height="26" as="geometry"/>
                </mxCell>
                <mxCell id="_T_32xjjqrooFcNaGYBu-4" value="description: varchar(250)" style="text;strokeColor=none;fillColor=none;align=left;verticalAlign=top;spacingLeft=4;spacingRight=4;overflow=hidden;rotatable=0;points=[[0,0.5],[1,0.5]];portConstraint=eastwest;" vertex="1" parent="_T_32xjjqrooFcNaGYBu-1">
                    <mxGeometry y="78" width="160" height="26" as="geometry"/>
                </mxCell>
                <mxCell id="_T_32xjjqrooFcNaGYBu-5" value="image: varcher(254)" style="text;strokeColor=none;fillColor=none;align=left;verticalAlign=top;spacingLeft=4;spacingRight=4;overflow=hidden;rotatable=0;points=[[0,0.5],[1,0.5]];portConstraint=eastwest;" vertex="1" parent="_T_32xjjqrooFcNaGYBu-1">
                    <mxGeometry y="104" width="160" height="26" as="geometry"/>
                </mxCell>
                <mxCell id="_T_32xjjqrooFcNaGYBu-6" value="fk_catalogue_id" style="text;strokeColor=none;fillColor=none;align=left;verticalAlign=top;spacingLeft=4;spacingRight=4;overflow=hidden;rotatable=0;points=[[0,0.5],[1,0.5]];portConstraint=eastwest;" vertex="1" parent="_T_32xjjqrooFcNaGYBu-1">
                    <mxGeometry y="130" width="160" height="26" as="geometry"/>
                </mxCell>
                <mxCell id="_T_32xjjqrooFcNaGYBu-7" value="set" style="swimlane;fontStyle=0;childLayout=stackLayout;horizontal=1;startSize=26;fillColor=none;horizontalStack=0;resizeParent=1;resizeParentMax=0;resizeLast=0;collapsible=1;marginBottom=0;" vertex="1" parent="1">
                    <mxGeometry x="120" y="360" width="160" height="130" as="geometry"/>
                </mxCell>
                <mxCell id="_T_32xjjqrooFcNaGYBu-8" value="catalogue_id : int" style="text;strokeColor=none;fillColor=none;align=left;verticalAlign=top;spacingLeft=4;spacingRight=4;overflow=hidden;rotatable=0;points=[[0,0.5],[1,0.5]];portConstraint=eastwest;fontStyle=4" vertex="1" parent="_T_32xjjqrooFcNaGYBu-7">
                    <mxGeometry y="26" width="160" height="26" as="geometry"/>
                </mxCell>
                <mxCell id="_T_32xjjqrooFcNaGYBu-9" value="st_price: decimal" style="text;strokeColor=none;fillColor=none;align=left;verticalAlign=top;spacingLeft=4;spacingRight=4;overflow=hidden;rotatable=0;points=[[0,0.5],[1,0.5]];portConstraint=eastwest;" vertex="1" parent="_T_32xjjqrooFcNaGYBu-7">
                    <mxGeometry y="52" width="160" height="26" as="geometry"/>
                </mxCell>
                <mxCell id="_T_32xjjqrooFcNaGYBu-10" value="hi_bid: decimal" style="text;strokeColor=none;fillColor=none;align=left;verticalAlign=top;spacingLeft=4;spacingRight=4;overflow=hidden;rotatable=0;points=[[0,0.5],[1,0.5]];portConstraint=eastwest;" vertex="1" parent="_T_32xjjqrooFcNaGYBu-7">
                    <mxGeometry y="78" width="160" height="26" as="geometry"/>
                </mxCell>
                <mxCell id="_T_32xjjqrooFcNaGYBu-11" value="time: time" style="text;strokeColor=none;fillColor=none;align=left;verticalAlign=top;spacingLeft=4;spacingRight=4;overflow=hidden;rotatable=0;points=[[0,0.5],[1,0.5]];portConstraint=eastwest;" vertex="1" parent="_T_32xjjqrooFcNaGYBu-7">
                    <mxGeometry y="104" width="160" height="26" as="geometry"/>
                </mxCell>
                <mxCell id="_T_32xjjqrooFcNaGYBu-14" value="costumer" style="swimlane;fontStyle=0;childLayout=stackLayout;horizontal=1;startSize=26;fillColor=none;horizontalStack=0;resizeParent=1;resizeParentMax=0;resizeLast=0;collapsible=1;marginBottom=0;" vertex="1" parent="1">
                    <mxGeometry x="560" y="114" width="160" height="156" as="geometry"/>
                </mxCell>
                <mxCell id="_T_32xjjqrooFcNaGYBu-15" value="user_id : int" style="text;strokeColor=none;fillColor=none;align=left;verticalAlign=top;spacingLeft=4;spacingRight=4;overflow=hidden;rotatable=0;points=[[0,0.5],[1,0.5]];portConstraint=eastwest;fontStyle=4" vertex="1" parent="_T_32xjjqrooFcNaGYBu-14">
                    <mxGeometry y="26" width="160" height="26" as="geometry"/>
                </mxCell>
                <mxCell id="_T_32xjjqrooFcNaGYBu-16" value="password: string" style="text;strokeColor=none;fillColor=none;align=left;verticalAlign=top;spacingLeft=4;spacingRight=4;overflow=hidden;rotatable=0;points=[[0,0.5],[1,0.5]];portConstraint=eastwest;" vertex="1" parent="_T_32xjjqrooFcNaGYBu-14">
                    <mxGeometry y="52" width="160" height="26" as="geometry"/>
                </mxCell>
                <mxCell id="_T_32xjjqrooFcNaGYBu-17" value="email: string" style="text;strokeColor=none;fillColor=none;align=left;verticalAlign=top;spacingLeft=4;spacingRight=4;overflow=hidden;rotatable=0;points=[[0,0.5],[1,0.5]];portConstraint=eastwest;" vertex="1" parent="_T_32xjjqrooFcNaGYBu-14">
                    <mxGeometry y="78" width="160" height="26" as="geometry"/>
                </mxCell>
                <mxCell id="_T_32xjjqrooFcNaGYBu-18" value="first_name: string" style="text;strokeColor=none;fillColor=none;align=left;verticalAlign=top;spacingLeft=4;spacingRight=4;overflow=hidden;rotatable=0;points=[[0,0.5],[1,0.5]];portConstraint=eastwest;" vertex="1" parent="_T_32xjjqrooFcNaGYBu-14">
                    <mxGeometry y="104" width="160" height="26" as="geometry"/>
                </mxCell>
                <mxCell id="_T_32xjjqrooFcNaGYBu-19" value="last_name: string" style="text;strokeColor=none;fillColor=none;align=left;verticalAlign=top;spacingLeft=4;spacingRight=4;overflow=hidden;rotatable=0;points=[[0,0.5],[1,0.5]];portConstraint=eastwest;" vertex="1" parent="_T_32xjjqrooFcNaGYBu-14">
                    <mxGeometry y="130" width="160" height="26" as="geometry"/>
                </mxCell>
                <mxCell id="_T_32xjjqrooFcNaGYBu-21" value="bid" style="swimlane;fontStyle=0;childLayout=stackLayout;horizontal=1;startSize=26;fillColor=none;horizontalStack=0;resizeParent=1;resizeParentMax=0;resizeLast=0;collapsible=1;marginBottom=0;" vertex="1" parent="1">
                    <mxGeometry x="560" y="360" width="160" height="182" as="geometry"/>
                </mxCell>
                <mxCell id="_T_32xjjqrooFcNaGYBu-22" value="bid_id : int" style="text;strokeColor=none;fillColor=none;align=left;verticalAlign=top;spacingLeft=4;spacingRight=4;overflow=hidden;rotatable=0;points=[[0,0.5],[1,0.5]];portConstraint=eastwest;fontStyle=4" vertex="1" parent="_T_32xjjqrooFcNaGYBu-21">
                    <mxGeometry y="26" width="160" height="26" as="geometry"/>
                </mxCell>
                <mxCell id="_T_32xjjqrooFcNaGYBu-23" value="amount: decimal" style="text;strokeColor=none;fillColor=none;align=left;verticalAlign=top;spacingLeft=4;spacingRight=4;overflow=hidden;rotatable=0;points=[[0,0.5],[1,0.5]];portConstraint=eastwest;" vertex="1" parent="_T_32xjjqrooFcNaGYBu-21">
                    <mxGeometry y="52" width="160" height="26" as="geometry"/>
                </mxCell>
                <mxCell id="_T_32xjjqrooFcNaGYBu-24" value="b_date: date" style="text;strokeColor=none;fillColor=none;align=left;verticalAlign=top;spacingLeft=4;spacingRight=4;overflow=hidden;rotatable=0;points=[[0,0.5],[1,0.5]];portConstraint=eastwest;" vertex="1" parent="_T_32xjjqrooFcNaGYBu-21">
                    <mxGeometry y="78" width="160" height="26" as="geometry"/>
                </mxCell>
                <mxCell id="_T_32xjjqrooFcNaGYBu-25" value="b_time: datetime" style="text;strokeColor=none;fillColor=none;align=left;verticalAlign=top;spacingLeft=4;spacingRight=4;overflow=hidden;rotatable=0;points=[[0,0.5],[1,0.5]];portConstraint=eastwest;" vertex="1" parent="_T_32xjjqrooFcNaGYBu-21">
                    <mxGeometry y="104" width="160" height="26" as="geometry"/>
                </mxCell>
                <mxCell id="_T_32xjjqrooFcNaGYBu-26" value="fk_user_id" style="text;strokeColor=none;fillColor=none;align=left;verticalAlign=top;spacingLeft=4;spacingRight=4;overflow=hidden;rotatable=0;points=[[0,0.5],[1,0.5]];portConstraint=eastwest;" vertex="1" parent="_T_32xjjqrooFcNaGYBu-21">
                    <mxGeometry y="130" width="160" height="26" as="geometry"/>
                </mxCell>
                <mxCell id="_T_32xjjqrooFcNaGYBu-27" value="fk_catalogue_id" style="text;strokeColor=none;fillColor=none;align=left;verticalAlign=top;spacingLeft=4;spacingRight=4;overflow=hidden;rotatable=0;points=[[0,0.5],[1,0.5]];portConstraint=eastwest;" vertex="1" parent="_T_32xjjqrooFcNaGYBu-21">
                    <mxGeometry y="156" width="160" height="26" as="geometry"/>
                </mxCell>
                <mxCell id="_T_32xjjqrooFcNaGYBu-28" value="" style="endArrow=none;html=1;edgeStyle=orthogonalEdgeStyle;entryX=1;entryY=0.25;entryDx=0;entryDy=0;exitX=1;exitY=0.5;exitDx=0;exitDy=0;endFill=0;startArrow=ERmany;startFill=0;" edge="1" parent="1" source="_T_32xjjqrooFcNaGYBu-26" target="_T_32xjjqrooFcNaGYBu-14">
                    <mxGeometry width="50" height="50" relative="1" as="geometry">
                        <mxPoint x="230" y="310" as="sourcePoint"/>
                        <mxPoint x="280" y="260" as="targetPoint"/>
                        <Array as="points">
                            <mxPoint x="780" y="503"/>
                            <mxPoint x="780" y="153"/>
                        </Array>
                    </mxGeometry>
                </mxCell>
                <mxCell id="_T_32xjjqrooFcNaGYBu-29" style="edgeStyle=orthogonalEdgeStyle;html=1;exitX=1;exitY=0.5;exitDx=0;exitDy=0;entryX=0;entryY=0.5;entryDx=0;entryDy=0;endArrow=ERmany;endFill=0;" edge="1" parent="1" source="_T_32xjjqrooFcNaGYBu-8" target="_T_32xjjqrooFcNaGYBu-27">
                    <mxGeometry relative="1" as="geometry">
                        <Array as="points">
                            <mxPoint x="330" y="399"/>
                            <mxPoint x="330" y="529"/>
                        </Array>
                    </mxGeometry>
                </mxCell>
                <mxCell id="Qs10GJjvPnZc2yXOy0Uy-2" style="edgeStyle=orthogonalEdgeStyle;html=1;exitX=0;exitY=0.5;exitDx=0;exitDy=0;entryX=0;entryY=0.5;entryDx=0;entryDy=0;startArrow=ERmany;startFill=0;endArrow=none;endFill=0;" edge="1" parent="1" source="_T_32xjjqrooFcNaGYBu-6" target="_T_32xjjqrooFcNaGYBu-8">
                    <mxGeometry relative="1" as="geometry">
                        <Array as="points">
                            <mxPoint x="70" y="257"/>
                            <mxPoint x="70" y="399"/>
                        </Array>
                    </mxGeometry>
                </mxCell>
            </root>
        </mxGraphModel>
    </diagram>
</mxfile>